<svg xmlns="http://www.w3.org/2000/svg" viewBox="-0.38 -0.27 161.67 129.59">
  <path d="m57.684-.266 4.765-.005c3.31-.003 6.62 0 9.931.01 4.207.012 8.413.005 12.62-.007 3.275-.007 6.55-.005 9.825 0 1.549.002 3.099 0 4.648-.005C117.265-.315 135.571.94 149 14c10.032 10.71 12.55 22.442 12.273 36.824-.588 12.7-6.44 22.73-15.398 31.426-3.616 3.12-7.14 4.797-11.563 6.563-6.166 2.644-8.02 5.198-10.742 11.18-6.953 13.317-20.646 22.4-34.57 27.007-7.224 2.132-14.252 2.35-21.75 2.313l-3.502-.018C46.356 129.047 31.869 124.174 19 112 3.592 95.712-.181 75.319-.295 53.605c-.012-1.52-.032-3.039-.062-4.558-.286-14.737 1.893-26.21 12.392-37.172C24.693-.269 41.076-.316 57.684-.265Z" fill="#e4e4e7"/>
  <path d="m57.684-.266 4.765-.005c3.31-.003 6.62 0 9.931.01 4.207.012 8.413.005 12.62-.007 3.275-.007 6.55-.005 9.825 0 1.549.002 3.099 0 4.648-.005C117.265-.315 135.571.94 149 14c10.032 10.71 12.55 22.442 12.273 36.824-.588 12.7-6.44 22.73-15.398 31.426-3.616 3.12-7.14 4.797-11.563 6.563-6.166 2.644-8.02 5.198-10.742 11.18-6.953 13.317-20.646 22.4-34.57 27.007-7.224 2.132-14.252 2.35-21.75 2.313l-3.502-.018C46.356 129.047 31.869 124.174 19 112 3.592 95.712-.181 75.319-.295 53.605c-.012-1.52-.032-3.039-.062-4.558-.286-14.737 1.893-26.21 12.392-37.172C24.693-.269 41.076-.316 57.684-.265ZM17.563 21.375c-10.48 12.72-8.539 30.708-7.1 46.244 1.785 15.42 7.715 30.448 19.892 40.53 15.238 10.668 31.6 12.496 49.77 10.288 12.768-2.498 24.089-9.853 31.938-20.14C115.778 92.753 118.21 87.418 120 81l2.813.375c6.728-.04 12.626-4.134 17.53-8.426 8.358-8.778 10.256-17.158 10.13-28.971-.322-8.78-2.542-15.887-8.657-22.384-13.584-11.92-30.856-11.747-47.96-11.762l-4.023-.01c-2.794-.006-5.589-.008-8.383-.007-3.54 0-7.08-.014-10.619-.031-2.765-.011-5.53-.013-8.296-.013-1.926-.001-3.852-.012-5.778-.023-14.51.037-28.74.49-39.194 11.627Z" fill="#e4e4e7"/>
  <path d="m60.012 9.832 4.02-.01c2.795-.006 5.592-.008 8.388-.007 3.538 0 7.076-.014 10.615-.031 2.765-.011 5.53-.013 8.296-.013 1.924-.001 3.849-.012 5.773-.023 15.49.04 31.528.934 43.896 11.252 7.019 7.386 9.568 15.32 9.438 25.375l-.03 2.539c-.304 10.585-3.56 17.204-10.908 24.879-4.786 4.225-10.1 7.454-16.625 7.52L120 81l-1.063 3.813C114.096 99.248 104.275 108.31 91 115c-15.08 6.476-34.087 5.733-49.156-.254-13.875-6.43-22.133-16.279-27.657-30.433-3.807-11.575-4.355-23.108-4.5-35.188l-.053-2.88c.013-12.164 3.63-20.375 12.053-28.995 10.776-8.327 25.48-7.407 38.325-7.418ZM25.375 29.305c-4.637 5.717-3.747 12.976-3.746 19.92a392.29 392.29 0 0 1-.078 6.326C21.43 70 24.116 85.194 34.07 96.312c11.073 10.495 22.81 11.16 37.374 10.965 11.333-.384 20.05-3.973 28.196-11.867 6.486-6.96 9.718-15.158 11.36-24.41l1.836.176c7.114.383 12.34-.999 18.164-5.176 5.308-5.44 8.282-11.138 8.313-18.813-.149-6.363-.727-11.238-5.012-16.124-7.642-7.206-16.192-9.169-26.503-9.224l-2.14-.015c-2.328-.015-4.655-.022-6.982-.027l-2.422-.009c-4.233-.015-8.466-.024-12.698-.028-4.35-.006-8.699-.03-13.049-.058-3.364-.019-6.727-.024-10.091-.026a754.128 754.128 0 0 1-4.807-.024c-11.187-.085-21.422-.1-30.234 7.653Z" fill="#262626"/>
  <path d="M61.313 37.313C63.645 38.776 65.81 40.333 68 42l1.398-1.313c4.615-3.939 8.02-5.622 14.145-5.199 5.857 1.22 9.948 4.36 13.457 9.137 2.77 5.011 2.944 9.799 2 15.375-3.466 10.93-11.816 18.92-21.125 25.125l-1.738 1.184C71.955 88.939 68.885 89.616 64 89c-11.293-5.09-20.523-13.987-26-25-1.871-5.614-2.078-12.597-.281-18.27 4.967-9.193 14.1-12.18 23.593-8.417Z" fill="#FF5B18"/>
  <path d="M115.75 34.688c3.245.04 4.23.3 7.125 2.062 3.159 3.345 4.017 5.062 4.438 9.688-.411 4.683-1.852 6.992-5 10.374-3.528 1.812-6.374 1.446-10.313 1.188-1.622-1.622-1.13-3.42-1.133-5.656l-.004-2.848.012-2.996-.012-2.996.004-2.848.004-2.63c.23-3.613 1.085-3.022 4.879-3.339Z" fill="#252525"/>
</svg>
